<?xml version="1.0" encoding="iso-8859-1"?>
<!-- Generator: Adobe Illustrator 21.0.2, SVG Export Plug-In . SVG Version: 6.00 Build 0)  -->
<svg version="1.1" id="Layer_1" xmlns="http://www.w3.org/2000/svg" xmlns:xlink="http://www.w3.org/1999/xlink" x="0px" y="0px"
	 viewBox="-49 141 512 512" style="enable-background:new -49 141 512 512;" xml:space="preserve">
<rect x="93.884" y="270.048" style="fill:#FFD6A0;" width="59.535" height="166.698"/>
<path style="fill:#FFE6C6;" d="M180.209,316.187c-13.407,0-24.594,9.984-26.5,22.882l-0.291,0.23v81.968h-35.721v-79.38
	c0-16.92,3.969-27.386,20.175-48.198l61.601-85.046c12.092-15.486,9.314-38.048-6.173-50.138
	c-15.485-12.092-38.048-9.314-50.138,6.171L66.038,270.181c-8.986,12.293-13.829,27.124-13.829,42.351v195.655l71.442,71.442
	l58.55-50.186c15.74-13.492,24.799-33.188,24.799-53.92V342.978C207,328.243,194.944,316.187,180.209,316.187z"/>
<rect x="6.503" y="447.598" transform="matrix(0.7071 -0.7071 0.7071 0.7071 -364.1515 200.6119)" style="fill:#7F479B;" width="107.162" height="184.556"/>
<rect x="16.968" y="472.859" transform="matrix(0.7071 -0.7071 0.7071 0.7071 -389.4114 190.1525)" style="fill:#5A227C;" width="35.721" height="184.556"/>
<rect x="260.581" y="270.048" style="fill:#FFD6A0;" width="59.535" height="166.698"/>
<path style="fill:#FFE6C6;" d="M233.791,316.187c13.407,0,24.593,9.984,26.5,22.882l0.291,0.23v81.968h35.721v-79.38
	c0-16.92-3.969-27.386-20.175-48.198l-61.601-85.044c-12.092-15.486-9.314-38.048,6.171-50.138
	c15.486-12.092,38.048-9.314,50.139,6.171l77.124,105.505c8.987,12.292,13.83,27.123,13.83,42.35v195.655l-71.442,71.442
	l-58.55-50.186C216.058,515.952,207,496.255,207,475.524V342.978C207,328.243,219.056,316.187,233.791,316.187z"/>
<rect x="261.63" y="486.306" transform="matrix(0.7071 -0.7071 0.7071 0.7071 -278.1007 408.3803)" style="fill:#7F479B;" width="184.556" height="107.162"/>
<rect x="286.885" y="547.299" transform="matrix(0.7071 -0.7071 0.7071 0.7071 -288.574 433.6401)" style="fill:#5A227C;" width="184.556" height="35.721"/>
<g>
	<rect x="-49" y="248.222" style="fill:#A460CC;" width="59.535" height="35.721"/>
	
		<rect x="-23.132" y="154.945" transform="matrix(0.3333 -0.9428 0.9428 0.3333 -177.6644 118.1759)" style="fill:#A460CC;" width="35.72" height="59.534"/>
	<rect x="403.465" y="248.222" style="fill:#A460CC;" width="59.535" height="35.721"/>
	
		<rect x="389.496" y="166.852" transform="matrix(0.9428 -0.3333 0.3333 0.9428 -37.5916 150.3048)" style="fill:#A460CC;" width="59.533" height="35.72"/>
</g>
</svg>
