<?xml version="1.0" encoding="iso-8859-1"?>
<!-- Generator: Adobe Illustrator 21.0.2, SVG Export Plug-In . SVG Version: 6.00 Build 0)  -->
<svg version="1.1" id="Camada_1" xmlns="http://www.w3.org/2000/svg" xmlns:xlink="http://www.w3.org/1999/xlink" x="0px" y="0px"
	 viewBox="0 0 512 492.059" style="enable-background:new 0 0 512 492.059;" xml:space="preserve">
<g>
	<g>
		<path style="fill:none;stroke:#A460CC;stroke-width:14;stroke-linecap:round;stroke-miterlimit:10;" d="M255.62,40.548v71.851
			 M255.62,112.399l28.74-28.731 M255.62,112.399l-28.767-28.731 M255.62,457.274v-71.851 M255.62,385.423l-28.767,28.731
			 M255.62,385.423l28.74,28.731"/>
	</g>
	<path style="fill:#E7ECED;" d="M456.407,246.354l-51.993,51.957c-82.763,82.763-216.927,82.763-299.681,0L54.42,247.998
		l51.993-51.993c82.727-82.727,216.89-82.727,299.644,0L456.407,246.354z M456.407,246.354"/>
	<path style="fill:#7F479B;" d="M337.925,247.369c0,46.874-38.027,84.865-84.901,84.865c-46.865,0-84.865-37.991-84.865-84.865
		c0-46.91,38-84.901,84.865-84.901C299.898,162.468,337.925,200.459,337.925,247.369L337.925,247.369z M337.925,247.369"/>
	<path style="fill:#FFFFFF;" d="M204.085,256.108c-3.961,0-7.194-3.233-7.194-7.194c0-27.752,22.561-50.313,50.314-50.313
		c3.961,0,7.194,3.233,7.194,7.194c0,3.961-3.233,7.194-7.194,7.194c-19.822,0-35.925,16.104-35.925,35.925
		C211.279,252.874,208.046,256.108,204.085,256.108L204.085,256.108z M204.085,256.108"/>
</g>
</svg>
