<?xml version="1.0" encoding="iso-8859-1"?>
<!-- Generator: Adobe Illustrator 21.0.2, SVG Export Plug-In . SVG Version: 6.00 Build 0)  -->
<svg version="1.1" id="Camada_1" xmlns="http://www.w3.org/2000/svg" xmlns:xlink="http://www.w3.org/1999/xlink" x="0px" y="0px"
	 viewBox="0 0 409.599 423.989" style="enable-background:new 0 0 409.599 423.989;" xml:space="preserve">
<path style="fill:#F3E0C5;" d="M389.931,188.029c-10.58-58.67-29.91-106.95-40.49-130.5c-3.68-8.21-11.86-13.41-20.88-13.28
	l-117.98,1.85c-8.53,0.14-16.51,4.79-20.83,12.15c-4.88,8.32-4.43,18.79,1.14,26.67l26.96,38.06c6.15,8.68,17.31,11.92,27.15,7.89
	l68.29-27.96c3.1-1.27,6.65,0.21,7.92,3.31c1.27,3.11-0.21,6.66-3.32,7.93l-18.63,7.63c3.01,14.34,0.88,28.27-6.41,41.45
	c-14.06,25.45-20.75,53.28-19.36,80.46l0.05,0.92c9.9,8.29,19.45,18.01,28.61,29.15c2.13,2.59,1.76,6.42-0.83,8.55
	c-1.14,0.93-2.5,1.38-3.86,1.38c-1.75,0-3.5-0.75-4.69-2.21c-19.54-23.75-40.83-40.64-63.27-50.19
	c-17.77-7.55-36.34-10.57-55.21-8.96c-32.21,2.75-54.19,18.02-54.4,18.18c-2.75,1.93-6.54,1.28-8.47-1.46
	c-1.94-2.75-1.28-6.54,1.46-8.47c0.74-0.52,14.06-9.78,35.32-15.77c-16.02-40.84-43.71-64.52-82.39-70.4
	c-30.43-4.63-56.86,3.92-57.77,4.22v171.75c6.36-10.9,17.4-18.63,32.42-22.58c13.59-3.57,28.73,9.59,25.39,9.37
	c-0.24-0.02-13.38-0.77-26.38,3.66c22.92,33.16,50.03,58.48,80.67,75.24c27.26,14.91,58,23.44,91.37,25.35
	c49.11,2.8,104.27-8.35,168.54-34.08C399.251,321.769,402.581,258.099,389.931,188.029z"/>
<g>
	
		<rect x="17.494" y="31.647" transform="matrix(0.9798 -0.1999 0.1999 0.9798 -11.5611 8.3052)" style="fill:#875D9C;" width="35.721" height="59.535"/>
	<polygon style="fill:#562376;" points="105.385,10.49 96.074,85.841 131.451,90.776 140.762,15.424 	"/>
</g>
<path style="fill:#EFD29B;" d="M401.891,185.869c-10.82-59.95-30.56-109.26-41.36-133.32c-5.68-12.64-18.33-20.68-32.17-20.45
	l-117.97,1.85c-12.75,0.2-24.67,7.15-31.12,18.15c-7.3,12.43-6.63,28.07,1.71,39.84l26.96,38.06c9.43,13.32,26.56,18.3,41.67,12.12
	l38.16-15.64c1.74,10.66-0.11,21.02-5.56,30.87c-13.59,24.6-20.77,51.31-21.02,77.8c-8.76-6.1-17.74-11.13-26.94-15.04
	c-19.61-8.34-40.13-11.67-60.99-9.89c-4.57,0.39-8.94,1.01-13.1,1.79c-21.99-57.57-62.47-75.16-92.99-79.69
	c-33.65-4.98-61.87,4.4-63.05,4.8c-3.18,1.08-4.87,4.53-3.8,7.7c1.08,3.18,4.52,4.89,7.7,3.82c0,0,0.01,0,0.02-0.01
	c0.91-0.3,27.34-8.85,57.77-4.22c38.68,5.88,66.37,29.56,82.39,70.4c-21.26,5.99-34.58,15.25-35.32,15.77
	c-2.74,1.93-3.4,5.72-1.46,8.47c1.93,2.74,5.72,3.39,8.47,1.46c0.21-0.16,22.19-15.43,54.4-18.18c18.87-1.61,37.44,1.41,55.21,8.96
	c22.44,9.55,43.73,26.44,63.27,50.19c1.19,1.46,2.94,2.21,4.69,2.21c1.36,0,2.72-0.45,3.86-1.38c2.59-2.13,2.96-5.96,0.83-8.55
	c-9.16-11.14-18.71-20.86-28.61-29.15l-0.05-0.92c-1.39-27.18,5.3-55.01,19.36-80.46c7.29-13.18,9.42-27.11,6.41-41.45l18.63-7.63
	c3.11-1.27,4.59-4.82,3.32-7.93c-1.27-3.1-4.82-4.58-7.92-3.31l-68.29,27.96c-9.84,4.03-21,0.79-27.15-7.89l-26.96-38.06
	c-5.57-7.88-6.02-18.35-1.14-26.67c4.32-7.36,12.3-12.01,20.83-12.15l117.98-1.85c9.02-0.13,17.2,5.07,20.88,13.28
	c10.58,23.55,29.91,71.83,40.49,130.5c4.191,23.215,6.617,45.724,7.304,67.472c-0.091-2.874-0.211-5.761-0.364-8.662
	c-1.72,31.21-7.33,60.64-16.82,88.09c-64.27,25.73-119.43,36.88-168.54,34.08c-33.37-1.91-64.11-10.44-91.37-25.35
	c-17.887-9.788-34.574-22.486-49.912-37.962c1.182-1.023-6.212-10.827-10.011-10.702c-7.259-8.199-14.178-17.068-20.747-26.576
	c13-4.43,26.14-3.68,26.38-3.66c3.34,0.22,6.24-2.31,6.46-5.65c0.23-3.35-2.29-6.25-5.64-6.48c-0.51-0.03-12.62-0.81-26.21,2.76
	c-15.02,3.95-26.06,11.68-32.42,22.58v42.41v16.55c0.61,0.19,1.23,0.29,1.84,0.29c2.58,0,4.97-1.66,5.79-4.25
	c2.4-7.58,7.12-12.96,12.74-16.76c45.66,66.91,107.02,103.03,182.41,107.34c5.16,0.29,10.37,0.44,15.65,0.44
	c47.57,0,100.33-11.98,160.69-36.41c1.61-0.66,2.86-1.96,3.44-3.6C411.311,325.789,415.111,259.139,401.891,185.869z
	 M67.074,307.127c-0.18,0.025-0.362,0.039-0.546,0.047C66.712,307.166,66.895,307.151,67.074,307.127z M66.471,307.179
	c-0.204,0.007-0.411,0.004-0.62-0.01C66.06,307.183,66.266,307.186,66.471,307.179z M46.142,296.527
	c-0.034,0.006-0.068,0.013-0.102,0.019C46.074,296.54,46.108,296.534,46.142,296.527z M43.394,297.091
	c-0.046,0.01-0.093,0.02-0.139,0.031C43.302,297.111,43.348,297.101,43.394,297.091z M382.25,370.689
	c-0.711,2.228-1.438,4.448-2.199,6.651C380.812,375.137,381.539,372.917,382.25,370.689z M382.832,368.84
	c0.578-1.852,1.14-3.713,1.683-5.583C383.971,365.127,383.41,366.988,382.832,368.84z M384.893,361.97
	c0.641-2.241,1.254-4.495,1.846-6.76C386.148,357.476,385.534,359.73,384.893,361.97z M388.933,346.272
	c0.533-2.32,1.045-4.65,1.528-6.994C389.978,341.622,389.466,343.952,388.933,346.272z M387.167,353.534
	c0.471-1.847,0.927-3.703,1.366-5.566C388.094,349.831,387.639,351.686,387.167,353.534z M397.402,273.457
	c-0.073,5.454-0.258,10.857-0.56,16.207C397.143,284.313,397.329,278.911,397.402,273.457z M396.78,290.688
	c-0.141,2.376-0.303,4.741-0.489,7.096C396.476,295.429,396.64,293.063,396.78,290.688z M396.217,298.749
	c-0.212,2.601-0.451,5.19-0.718,7.765C395.766,303.939,396.005,301.35,396.217,298.749z M395.41,307.321
	c-0.24,2.257-0.503,4.503-0.786,6.739C394.906,311.824,395.17,309.578,395.41,307.321z M394.427,315.61
	c-0.646,4.938-1.397,9.826-2.252,14.665C393.029,325.436,393.781,320.548,394.427,315.61z M391.858,332.038
	c-0.379,2.082-0.776,4.156-1.195,6.219C391.081,336.193,391.478,334.12,391.858,332.038z M397.412,272.612
	c0.062-5.567,0.008-11.187-0.169-16.859C397.419,261.425,397.475,267.045,397.412,272.612z"/>
</svg>
